<svg width="36" height="36" fill="none" xmlns="http://www.w3.org/2000/svg"><path d="M17.983 3.097a6.76 6.76 0 0 0-6.75 6.75v8.64a6.75 6.75 0 1 0 13.5 0v-8.64a6.76 6.76 0 0 0-6.75-6.75Zm0 20.64a5.25 5.25 0 0 1-5.25-5.25v-8.64a5.25 5.25 0 0 1 10.41-.93h-2.805a.75.75 0 1 0 0 1.5h2.895v3h-2.895a.75.75 0 0 0-.75.75.762.762 0 0 0 .75.75h2.895v3h-2.91a.762.762 0 0 0-.75.75.773.773 0 0 0 .75.75h2.82a5.238 5.238 0 0 1-5.16 4.32Z" fill="#fff"/><path d="M18.733 28.387v3.015h5.25a.75.75 0 1 1 0 1.5h-12a.75.75 0 1 1 0-1.5h5.25v-2.985a9.082 9.082 0 0 1-4.11-1.32 9.437 9.437 0 0 1-4.454-7.71c-.046-1.56 0-3.134 0-4.694a.75.75 0 1 1 1.5 0c0 1.56-.046 3.135 0 4.694A7.818 7.818 0 0 0 25.8 19.05c.015-1.44 0-2.895 0-4.35a.75.75 0 1 1 1.5 0 39.48 39.48 0 0 1-.12 5.955 9.353 9.353 0 0 1-8.447 7.732Z" fill="#fff"/></svg>