<svg width="36" height="36" fill="none" xmlns="http://www.w3.org/2000/svg"><path d="M29.25 15a.75.75 0 1 0-1.5 0h1.5Zm-21 0a.75.75 0 1 0-1.5 0h1.5Zm22.719 3.531a.75.75 0 0 0 1.062-1.062l-1.062 1.062ZM18 4.5l.531-.531a.75.75 0 0 0-1.062 0L18 4.5ZM3.969 17.469a.75.75 0 1 0 1.062 1.062l-1.062-1.062ZM10.5 32.25h15v-1.5h-15v1.5Zm18.75-3.75V15h-1.5v13.5h1.5Zm-21 0V15h-1.5v13.5h1.5Zm23.781-11.031-13.5-13.5-1.062 1.062 13.5 13.5 1.062-1.062Zm-14.562-13.5-13.5 13.5 1.062 1.062 13.5-13.5-1.062-1.062ZM25.5 32.25a3.75 3.75 0 0 0 3.75-3.75h-1.5a2.25 2.25 0 0 1-2.25 2.25v1.5Zm-15-1.5a2.25 2.25 0 0 1-2.25-2.25h-1.5a3.75 3.75 0 0 0 3.75 3.75v-1.5Z" fill="#fff"/></svg>