<svg width="36" height="36" fill="none" xmlns="http://www.w3.org/2000/svg"><path d="M14.625 6.188h-6.75a1.687 1.687 0 0 0-1.688 1.687v6.75a1.687 1.687 0 0 0 1.688 1.688h6.75a1.687 1.687 0 0 0 1.688-1.688v-6.75a1.687 1.687 0 0 0-1.688-1.688Zm.563 8.437a.562.562 0 0 1-.563.563h-6.75a.563.563 0 0 1-.563-.563v-6.75a.563.563 0 0 1 .563-.563h6.75a.562.562 0 0 1 .563.563v6.75Zm12.937-8.438h-6.75a1.687 1.687 0 0 0-1.688 1.688v6.75a1.687 1.687 0 0 0 1.688 1.688h6.75a1.687 1.687 0 0 0 1.688-1.688v-6.75a1.687 1.687 0 0 0-1.688-1.688Zm.563 8.438a.562.562 0 0 1-.563.563h-6.75a.562.562 0 0 1-.563-.563v-6.75a.563.563 0 0 1 .563-.563h6.75a.562.562 0 0 1 .563.563v6.75Zm-14.063 5.063h-6.75a1.687 1.687 0 0 0-1.688 1.687v6.75a1.687 1.687 0 0 0 1.688 1.688h6.75a1.687 1.687 0 0 0 1.688-1.688v-6.75a1.687 1.687 0 0 0-1.688-1.688Zm.563 8.437a.562.562 0 0 1-.563.563h-6.75a.563.563 0 0 1-.563-.563v-6.75a.562.562 0 0 1 .563-.563h6.75a.562.562 0 0 1 .563.563v6.75Zm12.937-8.438h-6.75a1.687 1.687 0 0 0-1.688 1.688v6.75a1.687 1.687 0 0 0 1.688 1.688h6.75a1.687 1.687 0 0 0 1.688-1.688v-6.75a1.687 1.687 0 0 0-1.688-1.688Zm.563 8.438a.562.562 0 0 1-.563.563h-6.75a.562.562 0 0 1-.563-.563v-6.75a.562.562 0 0 1 .563-.563h6.75a.562.562 0 0 1 .563.563v6.75Z" fill="#fff"/></svg>