<svg width="176" height="161" fill="none" xmlns="http://www.w3.org/2000/svg"><g clip-path="url('#clip0_213_441')"><path d="M70.953 58.08c-.371.684-1.275.97-2.027.627-.751-.342-1.056-1.169-.685-1.853.543-1.017.97-2.1 1.256-3.222.276-1.094.419-2.244.419-3.422 0-4.164-1.846-7.928-4.823-10.656-2.987-2.728-7.107-4.41-11.654-4.41s-8.675 1.692-11.653 4.41c-2.987 2.728-4.823 6.492-4.823 10.656 0 1.188.143 2.328.428 3.422a14.085 14.085 0 0 0 1.256 3.222c.37.684.057 1.511-.685 1.853-.752.343-1.655.057-2.026-.627a16.602 16.602 0 0 1-1.998-7.87c0-4.934 2.188-9.392 5.717-12.623 3.53-3.232 8.41-5.228 13.803-5.228 5.394 0 10.265 1.996 13.803 5.228 3.53 3.231 5.718 7.69 5.718 12.623 0 1.378-.171 2.737-.504 4.04a17.584 17.584 0 0 1-1.522 3.83ZM53.439 39.383c-4.794 0-8.675 3.555-8.675 7.937s3.89 7.937 8.675 7.937 8.676-3.555 8.676-7.937-3.881-7.937-8.676-7.937Zm22.318 26.815c-.514.598-1.466.703-2.122.237-.656-.475-.77-1.34-.257-1.948a22.61 22.61 0 0 0 4.015-6.72 21.218 21.218 0 0 0 1.37-7.557c0-6.397-2.835-12.186-7.42-16.378-4.586-4.192-10.912-6.787-17.904-6.787-6.992 0-13.318 2.595-17.903 6.787-4.585 4.192-7.42 9.98-7.42 16.378 0 2.661.485 5.199 1.37 7.556a22.612 22.612 0 0 0 4.014 6.72c.514.6.4 1.474-.256 1.95-.657.474-1.608.37-2.122-.239a25.362 25.362 0 0 1-4.49-7.537 23.828 23.828 0 0 1-1.55-8.46c0-7.157 3.177-13.64 8.304-18.336 5.128-4.695 12.215-7.594 20.044-7.594 7.829 0 14.916 2.899 20.043 7.595 5.128 4.695 8.305 11.178 8.305 18.335 0 2.947-.542 5.798-1.55 8.46-1.028 2.756-2.56 5.304-4.471 7.538Z" fill="#F0A202"/><path d="M51.546 88.05h.038c.076 0 .162.01.238.01.333.01.666.01.999.01a34.34 34.34 0 0 0 11.748-2.064v-3.754c0-12.224-5.003-22.223-11.13-22.223-6.116 0-11.13 10-11.13 22.223v8.279a9.95 9.95 0 0 1 6.888-2.766c.799 0 1.579.095 2.35.285Z" fill="#F0A202"/><path d="M49.206 132.573c-5.508 0-9.979-4.477-9.979-9.971v-24.79c0-5.504 4.48-9.971 9.979-9.971.79 0 1.58.095 2.34.276h.038c.076 0 .162.01.238.01.333.009.666.009.999.009a33.98 33.98 0 0 0 34.075-32.812c.342-9.087-2.94-17.804-9.247-24.524-6.297-6.72-14.783-10.57-23.877-10.826-16.134-.457-30.222 10.294-34.084 25.825-1.142 4.582-5.28 7.747-9.989 7.623a9.925 9.925 0 0 1-7.658-3.935 9.946 9.946 0 0 1-1.75-8.43c2.844-11.54 9.58-21.987 18.969-29.41C29.248 3.748 41.91-.406 54.676.03c14.412.495 27.758 6.53 37.585 16.996 9.827 10.456 15.002 24.153 14.593 38.563-.771 26.871-21.147 49.009-47.669 52.117v14.885c0 5.504-4.48 9.981-9.979 9.981Zm0-41.31c-3.615 0-6.554 2.937-6.554 6.549v24.79c0 3.612 2.94 6.549 6.554 6.549 3.615 0 6.554-2.937 6.554-6.549v-16.425c0-.884.676-1.626 1.56-1.702 25.552-2.253 45.377-23.307 46.109-48.97.79-27.737-21.128-51.073-48.877-52.033a56.107 56.107 0 0 0-1.788-.028C29.41 3.444 9.195 19.25 3.61 41.893a6.53 6.53 0 0 0 1.151 5.541 6.534 6.534 0 0 0 5.032 2.586c3.092.085 5.813-2.006 6.564-5.029 4.252-17.1 19.768-28.934 37.51-28.42 10.016.285 19.348 4.515 26.274 11.91 6.935 7.395 10.54 16.986 10.169 26.995-.362 9.752-4.443 18.849-11.482 25.626-7.03 6.739-16.267 10.465-26.008 10.465-.362 0-.723-.01-1.094-.019-.105 0-.219-.01-.333-.019l-.171-.01a1.592 1.592 0 0 1-.362-.056 6.917 6.917 0 0 0-1.655-.2ZM49.834 160.813c-5.47 0-9.912-4.449-9.912-9.905 0-5.456 4.442-9.914 9.912-9.914 5.47 0 9.912 4.449 9.912 9.905 0 5.456-4.452 9.914-9.912 9.914Zm0-16.397c-3.577 0-6.488 2.909-6.488 6.483s2.911 6.482 6.488 6.482c3.577 0 6.488-2.908 6.488-6.482 0-3.574-2.911-6.483-6.488-6.483Z" fill="#415D43"/><path d="M23.612 160.608v-18.662h7.81c1.309 0 2.438.237 3.377.724a6.44 6.44 0 0 1 2.604 2.375 6.297 6.297 0 0 1 .962 3.386c0 1.224-.32 2.364-.951 3.41a6.355 6.355 0 0 1-2.591 2.387c-.928.487-2.07.725-3.413.725h-2.924v5.654h-4.874v.001ZM62.809 160.608v-18.662h6.954a7.32 7.32 0 0 1 3.77 1.022 7.592 7.592 0 0 1 2.746 2.744 7.314 7.314 0 0 1 1.022 3.766v3.587a7.307 7.307 0 0 1-1.022 3.766 7.6 7.6 0 0 1-2.747 2.744 7.328 7.328 0 0 1-3.769 1.022h-6.955v.011Z" fill="#F0A202"/><path d="M84.172 160.608h-.998v-18.662h7.513c1.248 0 2.413.273 3.471.808 1.058.534 1.914 1.294 2.532 2.281.63.986.94 2.115.94 3.41 0 1.294-.321 2.363-.952 3.409a6.365 6.365 0 0 1-2.591 2.388c-.952.486-2.08.724-3.413.724h-6.503v5.642h.001Zm0-6.652h6.516c1.141 0 2.08-.178 2.817-.535a5.404 5.404 0 0 0 2.284-2.007c.57-.891.856-1.889.856-2.982a5.297 5.297 0 0 0-.856-2.945 5.318 5.318 0 0 0-2.307-2.008c-.737-.356-1.665-.534-2.794-.534h-6.516v11.012-.001ZM115.285 141.947v.985h-5.575v16.678h5.575v.998h-12.091v-.998h5.552v-16.678h-5.552v-.985h12.091ZM136.625 141.947v.985h-7.062v17.665h-.963v-17.665h-7.062v-.985h15.087ZM143.425 156.747a6.738 6.738 0 0 0 2.414 2.388 6.349 6.349 0 0 0 3.281.879c1.176 0 2.318-.237 3.304-.724.987-.487 1.76-1.152 2.319-2.008a5.29 5.29 0 0 0 .867-2.898h.963c0 1.236-.321 2.352-.975 3.362-.654 1.01-1.546 1.806-2.687 2.388-1.14.582-2.401.867-3.792.867a7.3 7.3 0 0 1-3.781-1.022 7.545 7.545 0 0 1-2.758-2.744 7.319 7.319 0 0 1-1.022-3.766v-4.395c0-1.355.333-2.613 1.01-3.766a7.472 7.472 0 0 1 2.734-2.744 7.327 7.327 0 0 1 3.769-1.022c1.356 0 2.639.285 3.769.867 1.142.581 2.033 1.378 2.699 2.387a5.968 5.968 0 0 1 .999 3.362h-.963c-.024-1.069-.309-2.043-.88-2.898a5.79 5.79 0 0 0-2.318-2.007c-.975-.487-2.069-.725-3.281-.725a6.297 6.297 0 0 0-3.27.88 6.753 6.753 0 0 0-2.389 2.387c-.595.998-.88 2.092-.88 3.267v4.396a5.867 5.867 0 0 0 .867 3.29l.001-.001ZM161.603 160.608v-18.662h.999v8.814h12.4v-8.814h.999v18.662h-.999v-8.85h-12.4v8.85h-.999Z" fill="#415D43"/></g><defs><clipPath id="clip0_213_441"><path fill="#fff" d="M0 0h176v161H0z"/></clipPath></defs></svg>