<svg width="36" height="36" fill="none" xmlns="http://www.w3.org/2000/svg"><path opacity=".5" d="M29.343 10.5a3.198 3.198 0 0 0-3.15-3.75H9.807a3.198 3.198 0 0 0-3.15 3.75M26.25 6.75c.042-.39.064-.583.064-.744a3 3 0 0 0-2.68-2.99C23.475 3 23.28 3 22.89 3h-9.78c-.39 0-.586 0-.745.017a3 3 0 0 0-2.681 2.989c0 .16.021.356.065.744" stroke="#fff" stroke-width="1.5"/><path d="M22.5 27h-9" stroke="#fff" stroke-width="1.5" stroke-linecap="round"/><path d="M3.576 20.69c-.67-4.747-1.005-7.118.417-8.656C5.415 10.5 7.947 10.5 13.008 10.5h9.984c5.061 0 7.593 0 9.015 1.536 1.42 1.536 1.086 3.908.417 8.653l-.633 4.5c-.525 3.72-.788 5.582-2.133 6.697C28.312 33 26.328 33 22.358 33h-8.716c-3.968 0-5.954 0-7.3-1.114-1.345-1.115-1.608-2.975-2.133-6.697l-.633-4.5Z" stroke="#fff" stroke-width="1.5"/></svg>