<svg width="122" height="105" fill="none" xmlns="http://www.w3.org/2000/svg"><path d="M121.232 54.8c.016-.632.06-1.259.062-1.898a37.266 37.266 0 0 0-.059-1.91c-.467-13.167-6.75-25.688-17.567-35.008C98.075 11.112 91.418 7.243 84.08 4.6 76.742 1.958 68.87.594 60.92.59 28.282.496 1.551 22.789.313 50.649a56.034 56.034 0 0 0-.077 1.905c.002.636.032 1.26.056 1.895.478 13.17 6.765 25.69 17.58 35.014 11.405 9.881 26.585 15.352 42.746 15.405 32.637.093 59.364-22.203 60.613-50.067ZM60.908 4.393c7.372.004 14.67 1.267 21.473 3.716 6.804 2.45 12.977 6.036 18.163 10.552 10.05 8.706 15.783 20.128 16.284 32.325l-7.143-.017c-.489-10.527-5.562-20.512-14.21-27.967-4.525-3.942-9.912-7.072-15.849-9.209-5.937-2.137-12.306-3.239-18.739-3.241-6.431-.034-12.805 1.032-18.753 3.136-5.948 2.103-11.351 5.202-15.898 9.117-8.75 7.495-13.789 17.325-14.368 27.885l-7.146-.027C5.96 24.89 30.71 4.306 60.908 4.392Zm44.373 46.56-.007.006-7.236-.023c-.473-7.872-4.31-15.317-10.774-20.901-3.453-3.009-7.565-5.398-12.096-7.028-4.531-1.631-9.393-2.471-14.302-2.472-4.91-.027-9.777.786-14.319 2.39-4.541 1.605-8.667 3.97-12.14 6.959-6.49 5.543-10.369 12.962-10.885 20.827l-7.24-.015c.546-9.513 5.207-18.501 13.067-25.195 4.137-3.562 9.054-6.382 14.466-8.295 5.413-1.912 11.213-2.88 17.065-2.848 5.852 0 11.647 1.002 17.048 2.946 5.402 1.944 10.303 4.791 14.42 8.377 7.871 6.82 12.407 15.733 12.933 25.272ZM84.025 72.871c-6.238 5.342-14.53 8.27-23.338 8.245-8.808-.025-17.077-2.994-23.288-8.375-5.63-4.872-9.004-11.345-9.487-18.204l.01-.015c-.055-.627-.11-1.253-.112-1.89.014-.634.055-1.268.123-1.9.515-6.858 3.928-13.313 9.595-18.146 6.241-5.346 14.523-8.277 23.327-8.249 4.33.001 8.616.742 12.612 2.18 3.995 1.439 7.62 3.546 10.665 6.199 5.688 4.928 8.987 11.333 9.488 18.197.051.636.117 1.272.105 1.908a22.416 22.416 0 0 1-.109 1.9c-.518 6.858-3.93 13.313-9.59 18.15ZM23.5 54.516c.473 7.87 4.312 15.318 10.771 20.904 3.454 3.009 7.568 5.397 12.101 7.027 4.534 1.629 9.397 2.466 14.308 2.463 4.91.03 9.777-.781 14.319-2.385 4.542-1.604 8.668-3.969 12.139-6.958 6.489-5.548 10.37-12.967 10.9-20.833l7.221.024c-.548 9.51-5.208 18.497-13.063 25.192-4.136 3.564-9.054 6.385-14.468 8.298-5.414 1.913-11.216 2.88-17.07 2.846-5.852 0-11.647-1-17.049-2.944-5.401-1.944-10.302-4.793-14.418-8.38-7.818-6.741-12.43-15.756-12.926-25.272l7.235.018Zm37.134 46.539c-7.372-.002-14.67-1.265-21.473-3.715-6.803-2.45-12.976-6.037-18.16-10.556-9.99-8.609-15.814-20.164-16.29-32.325l7.15.03C12.347 65.016 17.42 75 26.07 82.455c4.525 3.942 9.913 7.073 15.852 9.209C47.86 93.8 54.232 94.9 60.665 94.9c6.431.033 12.804-1.032 18.752-3.135 5.947-2.103 11.35-5.2 15.896-9.115 8.689-7.406 13.817-17.362 14.361-27.886l7.143.018c-1.243 25.769-25.975 46.363-56.183 46.273Z" fill="#F0A202"/></svg>